<svg width="154" height="22" viewBox="0 0 154 22" fill="none" xmlns="http://www.w3.org/2000/svg">
<path d="M14.735 21.8296L13.9941 21.8296C13.6888 21.8296 13.415 21.6412 13.3056 21.3562L9.74657 12.0826L0.473176 8.52342C0.18816 8.41401 4.591e-05 8.14017 0 7.83487L2.00911e-06 7.09399L14.7498 7.0791L14.735 21.8296Z" fill="white"/>
<path d="M14.735 21.8296L13.9941 21.8296C13.6888 21.8296 13.415 21.6412 13.3056 21.3562L9.74657 12.0826L0.473176 8.52342C0.18816 8.41401 4.591e-05 8.14017 0 7.83487L2.00911e-06 7.09399L14.7498 7.0791L14.735 21.8296Z" fill="url(#paint0_linear_220_8483)" fill-opacity="0.4"/>
<path d="M21.6027 19.1706H20.6501C20.2575 19.1706 19.9055 18.9284 19.7648 18.5618L15.1886 6.6377L3.26467 2.06123C2.89819 1.92055 2.65631 1.56844 2.65625 1.17588L2.65625 0.22324L21.6219 0.204102L21.6027 19.1706Z" fill="white"/>
<path d="M21.6027 19.1706H20.6501C20.2575 19.1706 19.9055 18.9284 19.7648 18.5618L15.1886 6.6377L3.26467 2.06123C2.89819 1.92055 2.65631 1.56844 2.65625 1.17588L2.65625 0.22324L21.6219 0.204102L21.6027 19.1706Z" fill="url(#paint1_linear_220_8483)" fill-opacity="0.4"/>
<path d="M27.6133 21.8146L35.8633 0.185391H39.0459L47.265 21.8146H44.3914L42.1049 15.9747H32.6807L30.3942 21.8146H27.6133ZM33.4841 13.5337H41.3015L37.3773 3.12079L33.4841 13.5337Z" fill="white"/>
<path d="M27.6133 21.8146L35.8633 0.185391H39.0459L47.265 21.8146H44.3914L42.1049 15.9747H32.6807L30.3942 21.8146H27.6133ZM33.4841 13.5337H41.3015L37.3773 3.12079L33.4841 13.5337Z" fill="url(#paint2_linear_220_8483)" fill-opacity="0.4"/>
<path d="M54.8869 22C53.3625 22 52.0236 21.6704 50.87 21.0112C49.7164 20.3521 48.8204 19.4251 48.1818 18.2303C47.5638 17.015 47.2548 15.5936 47.2548 13.9663C47.2548 12.3596 47.5741 10.9485 48.2127 9.73314C48.8719 8.51779 49.7782 7.57023 50.9318 6.89045C52.0854 6.21068 53.4243 5.87078 54.9487 5.87078C56.885 5.87078 58.4402 6.37547 59.6144 7.38483C60.8091 8.3942 61.5713 9.76405 61.9009 11.4944H59.2436C59.017 10.4438 58.5226 9.61985 57.7605 9.02247C57.0189 8.42509 56.0713 8.1264 54.9178 8.1264C53.9084 8.1264 53.0226 8.37359 52.2604 8.86798C51.4983 9.36236 50.9009 10.0524 50.4683 10.9382C50.0563 11.8034 49.8503 12.8127 49.8503 13.9663C49.8503 15.0993 50.0563 16.1086 50.4683 16.9944C50.9009 17.8596 51.4983 18.5393 52.2604 19.0337C53.0226 19.5075 53.9084 19.7444 54.9178 19.7444C56.0507 19.7444 56.988 19.4457 57.7296 18.8483C58.4711 18.2509 58.9655 17.4476 59.2127 16.4382H61.9009C61.5919 18.1273 60.8194 19.4766 59.5835 20.486C58.3681 21.4953 56.8026 22 54.8869 22Z" fill="white"/>
<path d="M54.8869 22C53.3625 22 52.0236 21.6704 50.87 21.0112C49.7164 20.3521 48.8204 19.4251 48.1818 18.2303C47.5638 17.015 47.2548 15.5936 47.2548 13.9663C47.2548 12.3596 47.5741 10.9485 48.2127 9.73314C48.8719 8.51779 49.7782 7.57023 50.9318 6.89045C52.0854 6.21068 53.4243 5.87078 54.9487 5.87078C56.885 5.87078 58.4402 6.37547 59.6144 7.38483C60.8091 8.3942 61.5713 9.76405 61.9009 11.4944H59.2436C59.017 10.4438 58.5226 9.61985 57.7605 9.02247C57.0189 8.42509 56.0713 8.1264 54.9178 8.1264C53.9084 8.1264 53.0226 8.37359 52.2604 8.86798C51.4983 9.36236 50.9009 10.0524 50.4683 10.9382C50.0563 11.8034 49.8503 12.8127 49.8503 13.9663C49.8503 15.0993 50.0563 16.1086 50.4683 16.9944C50.9009 17.8596 51.4983 18.5393 52.2604 19.0337C53.0226 19.5075 53.9084 19.7444 54.9178 19.7444C56.0507 19.7444 56.988 19.4457 57.7296 18.8483C58.4711 18.2509 58.9655 17.4476 59.2127 16.4382H61.9009C61.5919 18.1273 60.8194 19.4766 59.5835 20.486C58.3681 21.4953 56.8026 22 54.8869 22Z" fill="url(#paint3_linear_220_8483)" fill-opacity="0.4"/>
<path d="M69.0354 21.8146C67.5317 21.8146 66.4708 21.4747 65.8528 20.7949C65.2348 20.1152 64.9258 19.0852 64.9258 17.7051V8.37359H62.0832V6.05618H64.9258V1.63764H67.4596V6.05618H71.5382V8.37359H67.4596V17.6742C67.4596 18.3333 67.5935 18.8071 67.8612 19.0955C68.129 19.3633 68.6028 19.4972 69.2826 19.4972H71.7854V21.8146H69.0354Z" fill="white"/>
<path d="M69.0354 21.8146C67.5317 21.8146 66.4708 21.4747 65.8528 20.7949C65.2348 20.1152 64.9258 19.0852 64.9258 17.7051V8.37359H62.0832V6.05618H64.9258V1.63764H67.4596V6.05618H71.5382V8.37359H67.4596V17.6742C67.4596 18.3333 67.5935 18.8071 67.8612 19.0955C68.129 19.3633 68.6028 19.4972 69.2826 19.4972H71.7854V21.8146H69.0354Z" fill="url(#paint4_linear_220_8483)" fill-opacity="0.4"/>
<path d="M73.054 6.05618H75.5877V21.8146H73.054V6.05618ZM74.3517 3.39888C73.8985 3.39888 73.5071 3.24438 73.1775 2.93539C72.8686 2.6264 72.7141 2.23502 72.7141 1.76123C72.7141 1.28745 72.8686 0.896066 73.1775 0.587077C73.5071 0.278089 73.8985 0.123595 74.3517 0.123595C74.8255 0.123595 75.2169 0.278089 75.5259 0.587077C75.8348 0.896066 75.9893 1.28745 75.9893 1.76123C75.9893 2.23502 75.8348 2.6264 75.5259 2.93539C75.2169 3.24438 74.8255 3.39888 74.3517 3.39888Z" fill="white"/>
<path d="M73.054 6.05618H75.5877V21.8146H73.054V6.05618ZM74.3517 3.39888C73.8985 3.39888 73.5071 3.24438 73.1775 2.93539C72.8686 2.6264 72.7141 2.23502 72.7141 1.76123C72.7141 1.28745 72.8686 0.896066 73.1775 0.587077C73.5071 0.278089 73.8985 0.123595 74.3517 0.123595C74.8255 0.123595 75.2169 0.278089 75.5259 0.587077C75.8348 0.896066 75.9893 1.28745 75.9893 1.76123C75.9893 2.23502 75.8348 2.6264 75.5259 2.93539C75.2169 3.24438 74.8255 3.39888 74.3517 3.39888Z" fill="url(#paint5_linear_220_8483)" fill-opacity="0.4"/>
<path d="M85.393 19.7444C86.4435 19.7444 87.3602 19.4972 88.143 19.0028C88.9258 18.4878 89.5334 17.7978 89.966 16.9326C90.3986 16.0468 90.6149 15.0478 90.6149 13.9354C90.6149 12.8024 90.3986 11.8034 89.966 10.9382C89.5334 10.073 88.9258 9.39326 88.143 8.89888C87.3602 8.3839 86.4435 8.1264 85.393 8.1264C84.3424 8.1264 83.4258 8.3839 82.643 8.89888C81.8602 9.39326 81.2525 10.073 80.8199 10.9382C80.3874 11.8034 80.1711 12.8024 80.1711 13.9354C80.1711 15.0478 80.3874 16.0468 80.8199 16.9326C81.2525 17.7978 81.8602 18.4878 82.643 19.0028C83.4258 19.4972 84.3424 19.7444 85.393 19.7444ZM85.393 22C83.8686 22 82.5091 21.6601 81.3143 20.9803C80.1402 20.3006 79.2235 19.353 78.5643 18.1376C77.9052 16.9223 77.5756 15.5215 77.5756 13.9354C77.5756 12.3286 77.9052 10.9279 78.5643 9.73314C79.2235 8.51779 80.1402 7.57023 81.3143 6.89045C82.5091 6.21068 83.8686 5.87078 85.393 5.87078C86.9379 5.87078 88.2975 6.21068 89.4716 6.89045C90.6458 7.57023 91.5625 8.51779 92.2216 9.73314C92.8808 10.9279 93.2104 12.3286 93.2104 13.9354C93.2104 15.5215 92.8808 16.9223 92.2216 18.1376C91.5625 19.353 90.6458 20.3006 89.4716 20.9803C88.2975 21.6601 86.9379 22 85.393 22Z" fill="white"/>
<path d="M85.393 19.7444C86.4435 19.7444 87.3602 19.4972 88.143 19.0028C88.9258 18.4878 89.5334 17.7978 89.966 16.9326C90.3986 16.0468 90.6149 15.0478 90.6149 13.9354C90.6149 12.8024 90.3986 11.8034 89.966 10.9382C89.5334 10.073 88.9258 9.39326 88.143 8.89888C87.3602 8.3839 86.4435 8.1264 85.393 8.1264C84.3424 8.1264 83.4258 8.3839 82.643 8.89888C81.8602 9.39326 81.2525 10.073 80.8199 10.9382C80.3874 11.8034 80.1711 12.8024 80.1711 13.9354C80.1711 15.0478 80.3874 16.0468 80.8199 16.9326C81.2525 17.7978 81.8602 18.4878 82.643 19.0028C83.4258 19.4972 84.3424 19.7444 85.393 19.7444ZM85.393 22C83.8686 22 82.5091 21.6601 81.3143 20.9803C80.1402 20.3006 79.2235 19.353 78.5643 18.1376C77.9052 16.9223 77.5756 15.5215 77.5756 13.9354C77.5756 12.3286 77.9052 10.9279 78.5643 9.73314C79.2235 8.51779 80.1402 7.57023 81.3143 6.89045C82.5091 6.21068 83.8686 5.87078 85.393 5.87078C86.9379 5.87078 88.2975 6.21068 89.4716 6.89045C90.6458 7.57023 91.5625 8.51779 92.2216 9.73314C92.8808 10.9279 93.2104 12.3286 93.2104 13.9354C93.2104 15.5215 92.8808 16.9223 92.2216 18.1376C91.5625 19.353 90.6458 20.3006 89.4716 20.9803C88.2975 21.6601 86.9379 22 85.393 22Z" fill="url(#paint6_linear_220_8483)" fill-opacity="0.4"/>
<path d="M95.1889 6.05618H97.3827L97.908 9.33146L97.3827 8.68258C97.8153 8.00281 98.4642 7.36423 99.3293 6.76685C100.215 6.16947 101.41 5.87078 102.914 5.87078C104.108 5.87078 105.18 6.10768 106.127 6.58146C107.095 7.05524 107.857 7.81741 108.414 8.86798C108.99 9.89794 109.279 11.2884 109.279 13.0393V21.8146H106.745V13.1938C106.745 11.5459 106.374 10.2996 105.633 9.45506C104.912 8.61049 103.861 8.1882 102.481 8.1882C101.492 8.1882 100.637 8.42509 99.9164 8.89888C99.216 9.35206 98.6702 10.0112 98.2788 10.8764C97.908 11.7416 97.7226 12.7612 97.7226 13.9354V21.8146H95.1889V6.05618Z" fill="white"/>
<path d="M95.1889 6.05618H97.3827L97.908 9.33146L97.3827 8.68258C97.8153 8.00281 98.4642 7.36423 99.3293 6.76685C100.215 6.16947 101.41 5.87078 102.914 5.87078C104.108 5.87078 105.18 6.10768 106.127 6.58146C107.095 7.05524 107.857 7.81741 108.414 8.86798C108.99 9.89794 109.279 11.2884 109.279 13.0393V21.8146H106.745V13.1938C106.745 11.5459 106.374 10.2996 105.633 9.45506C104.912 8.61049 103.861 8.1882 102.481 8.1882C101.492 8.1882 100.637 8.42509 99.9164 8.89888C99.216 9.35206 98.6702 10.0112 98.2788 10.8764C97.908 11.7416 97.7226 12.7612 97.7226 13.9354V21.8146H95.1889V6.05618Z" fill="url(#paint7_linear_220_8483)" fill-opacity="0.4"/>
<path d="M111.829 0.185391H115.383V9.26966H125.425V0.185391H128.978V21.8146H125.425V12.4213H115.383V21.8146H111.829V0.185391Z" fill="white"/>
<path d="M111.829 0.185391H115.383V9.26966H125.425V0.185391H128.978V21.8146H125.425V12.4213H115.383V21.8146H111.829V0.185391Z" fill="url(#paint8_linear_220_8483)" fill-opacity="0.4"/>
<path d="M141.604 12.7921H143.921C144.457 12.7921 144.91 12.8539 145.281 12.9775C145.652 13.0805 145.971 13.2453 146.239 13.4719C146.507 13.6985 146.754 13.9766 146.98 14.3062L149.514 17.6124C149.782 17.9625 150.05 18.2303 150.318 18.4157C150.606 18.5805 150.966 18.6629 151.399 18.6629H153.284V21.8146H151.183C150.297 21.8146 149.617 21.691 149.143 21.4438C148.67 21.1966 148.237 20.8155 147.846 20.3006L145.25 16.9326C145.003 16.5618 144.745 16.294 144.478 16.1292C144.21 15.9644 143.891 15.882 143.52 15.882H141.604V12.7921ZM141.666 0C143.746 0 145.569 0.473783 147.135 1.42135C148.721 2.36891 149.957 3.67696 150.843 5.3455C151.729 6.99344 152.171 8.87828 152.171 11C152.171 13.1217 151.729 15.0169 150.843 16.6854C149.957 18.3333 148.721 19.6311 147.135 20.5787C145.569 21.5262 143.746 22 141.666 22C139.606 22 137.783 21.5262 136.197 20.5787C134.631 19.6311 133.395 18.3333 132.489 16.6854C131.603 15.0169 131.16 13.1217 131.16 11C131.16 8.87828 131.603 6.99344 132.489 5.3455C133.395 3.67696 134.631 2.36891 136.197 1.42135C137.783 0.473783 139.606 0 141.666 0ZM141.666 3.12079C140.306 3.12079 139.112 3.46067 138.082 4.14045C137.052 4.82022 136.248 5.74719 135.672 6.92135C135.095 8.09551 134.806 9.45506 134.806 11C134.806 12.5243 135.095 13.8839 135.672 15.0787C136.248 16.2528 137.052 17.1798 138.082 17.8596C139.112 18.5393 140.306 18.8792 141.666 18.8792C143.046 18.8792 144.251 18.5393 145.281 17.8596C146.311 17.1798 147.104 16.2528 147.66 15.0787C148.237 13.8839 148.525 12.5243 148.525 11C148.525 9.45506 148.237 8.09551 147.66 6.92135C147.104 5.74719 146.311 4.82022 145.281 4.14045C144.251 3.46067 143.046 3.12079 141.666 3.12079Z" fill="white"/>
<path d="M141.604 12.7921H143.921C144.457 12.7921 144.91 12.8539 145.281 12.9775C145.652 13.0805 145.971 13.2453 146.239 13.4719C146.507 13.6985 146.754 13.9766 146.98 14.3062L149.514 17.6124C149.782 17.9625 150.05 18.2303 150.318 18.4157C150.606 18.5805 150.966 18.6629 151.399 18.6629H153.284V21.8146H151.183C150.297 21.8146 149.617 21.691 149.143 21.4438C148.67 21.1966 148.237 20.8155 147.846 20.3006L145.25 16.9326C145.003 16.5618 144.745 16.294 144.478 16.1292C144.21 15.9644 143.891 15.882 143.52 15.882H141.604V12.7921ZM141.666 0C143.746 0 145.569 0.473783 147.135 1.42135C148.721 2.36891 149.957 3.67696 150.843 5.3455C151.729 6.99344 152.171 8.87828 152.171 11C152.171 13.1217 151.729 15.0169 150.843 16.6854C149.957 18.3333 148.721 19.6311 147.135 20.5787C145.569 21.5262 143.746 22 141.666 22C139.606 22 137.783 21.5262 136.197 20.5787C134.631 19.6311 133.395 18.3333 132.489 16.6854C131.603 15.0169 131.16 13.1217 131.16 11C131.16 8.87828 131.603 6.99344 132.489 5.3455C133.395 3.67696 134.631 2.36891 136.197 1.42135C137.783 0.473783 139.606 0 141.666 0ZM141.666 3.12079C140.306 3.12079 139.112 3.46067 138.082 4.14045C137.052 4.82022 136.248 5.74719 135.672 6.92135C135.095 8.09551 134.806 9.45506 134.806 11C134.806 12.5243 135.095 13.8839 135.672 15.0787C136.248 16.2528 137.052 17.1798 138.082 17.8596C139.112 18.5393 140.306 18.8792 141.666 18.8792C143.046 18.8792 144.251 18.5393 145.281 17.8596C146.311 17.1798 147.104 16.2528 147.66 15.0787C148.237 13.8839 148.525 12.5243 148.525 11C148.525 9.45506 148.237 8.09551 147.66 6.92135C147.104 5.74719 146.311 4.82022 145.281 4.14045C144.251 3.46067 143.046 3.12079 141.666 3.12079Z" fill="url(#paint9_linear_220_8483)" fill-opacity="0.4"/>
<defs>
<linearGradient id="paint0_linear_220_8483" x1="7.37493" y1="7.0791" x2="7.37493" y2="21.8296" gradientUnits="userSpaceOnUse">
<stop stop-color="white" stop-opacity="0"/>
<stop offset="0.75" stop-color="#3B82F6"/>
</linearGradient>
<linearGradient id="paint1_linear_220_8483" x1="12.1391" y1="0.204102" x2="12.1391" y2="19.1706" gradientUnits="userSpaceOnUse">
<stop stop-color="white" stop-opacity="0"/>
<stop offset="0.75" stop-color="#3B82F6"/>
</linearGradient>
<linearGradient id="paint2_linear_220_8483" x1="90.4486" y1="0" x2="90.4486" y2="22" gradientUnits="userSpaceOnUse">
<stop stop-color="white" stop-opacity="0"/>
<stop offset="0.75" stop-color="#3B82F6"/>
</linearGradient>
<linearGradient id="paint3_linear_220_8483" x1="90.4486" y1="0" x2="90.4486" y2="22" gradientUnits="userSpaceOnUse">
<stop stop-color="white" stop-opacity="0"/>
<stop offset="0.75" stop-color="#3B82F6"/>
</linearGradient>
<linearGradient id="paint4_linear_220_8483" x1="90.4486" y1="0" x2="90.4486" y2="22" gradientUnits="userSpaceOnUse">
<stop stop-color="white" stop-opacity="0"/>
<stop offset="0.75" stop-color="#3B82F6"/>
</linearGradient>
<linearGradient id="paint5_linear_220_8483" x1="90.4486" y1="0" x2="90.4486" y2="22" gradientUnits="userSpaceOnUse">
<stop stop-color="white" stop-opacity="0"/>
<stop offset="0.75" stop-color="#3B82F6"/>
</linearGradient>
<linearGradient id="paint6_linear_220_8483" x1="90.4486" y1="0" x2="90.4486" y2="22" gradientUnits="userSpaceOnUse">
<stop stop-color="white" stop-opacity="0"/>
<stop offset="0.75" stop-color="#3B82F6"/>
</linearGradient>
<linearGradient id="paint7_linear_220_8483" x1="90.4486" y1="0" x2="90.4486" y2="22" gradientUnits="userSpaceOnUse">
<stop stop-color="white" stop-opacity="0"/>
<stop offset="0.75" stop-color="#3B82F6"/>
</linearGradient>
<linearGradient id="paint8_linear_220_8483" x1="90.4486" y1="0" x2="90.4486" y2="22" gradientUnits="userSpaceOnUse">
<stop stop-color="white" stop-opacity="0"/>
<stop offset="0.75" stop-color="#3B82F6"/>
</linearGradient>
<linearGradient id="paint9_linear_220_8483" x1="90.4486" y1="0" x2="90.4486" y2="22" gradientUnits="userSpaceOnUse">
<stop stop-color="white" stop-opacity="0"/>
<stop offset="0.75" stop-color="#3B82F6"/>
</linearGradient>
</defs>
</svg>
