<svg width="154" height="22" viewBox="0 0 154 22" fill="none" xmlns="http://www.w3.org/2000/svg">
<path d="M14.735 21.8296L13.9941 21.8296C13.6888 21.8296 13.415 21.6412 13.3056 21.3562L9.74657 12.0826L0.473176 8.52342C0.18816 8.41401 4.591e-05 8.14017 0 7.83487L2.00911e-06 7.09399L14.7498 7.0791L14.735 21.8296Z" fill="url(#paint0_linear_5137_24679)"/>
<path d="M21.6027 19.1706L20.6501 19.1706C20.2575 19.1706 19.9055 18.9284 19.7648 18.5618L15.1886 6.6377L3.26467 2.06123C2.89819 1.92055 2.65631 1.56844 2.65625 1.17588L2.65625 0.22324L21.6219 0.204102L21.6027 19.1706Z" fill="url(#paint1_linear_5137_24679)"/>
<path d="M27.6138 21.8146L35.8638 0.185391H39.0464L47.2655 21.8146H44.3919L42.1053 15.9747H32.6812L30.3947 21.8146H27.6138ZM33.4846 13.5337H41.302L37.3778 3.12079L33.4846 13.5337Z" fill="url(#paint2_linear_5137_24679)"/>
<path d="M54.8873 22C53.363 22 52.024 21.6704 50.8705 21.0112C49.7169 20.3521 48.8209 19.4251 48.1823 18.2303C47.5643 17.015 47.2553 15.5936 47.2553 13.9663C47.2553 12.3596 47.5746 10.9485 48.2132 9.73314C48.8724 8.51779 49.7787 7.57023 50.9323 6.89045C52.0858 6.21068 53.4248 5.87078 54.9491 5.87078C56.8855 5.87078 58.4407 6.37547 59.6149 7.38483C60.8096 8.3942 61.5718 9.76405 61.9014 11.4944H59.2441C59.0175 10.4438 58.5231 9.61985 57.7609 9.02247C57.0194 8.42509 56.0718 8.12641 54.9182 8.12641C53.9089 8.12641 53.0231 8.37359 52.2609 8.86798C51.4988 9.36236 50.9014 10.0524 50.4688 10.9382C50.0568 11.8034 49.8508 12.8127 49.8508 13.9663C49.8508 15.0993 50.0568 16.1086 50.4688 16.9944C50.9014 17.8596 51.4988 18.5393 52.2609 19.0337C53.0231 19.5075 53.9089 19.7444 54.9182 19.7444C56.0512 19.7444 56.9885 19.4457 57.73 18.8483C58.4716 18.2509 58.966 17.4476 59.2132 16.4382H61.9014C61.5924 18.1273 60.8199 19.4766 59.584 20.486C58.3686 21.4953 56.8031 22 54.8873 22Z" fill="url(#paint3_linear_5137_24679)"/>
<path d="M69.0359 21.8146C67.5321 21.8146 66.4713 21.4747 65.8533 20.7949C65.2353 20.1152 64.9263 19.0852 64.9263 17.7051V8.37359H62.0836V6.05618H64.9263V1.63764H67.46V6.05618H71.5387V8.37359H67.46V17.6742C67.46 18.3333 67.5939 18.8071 67.8617 19.0955C68.1295 19.3633 68.6033 19.4972 69.2831 19.4972H71.7859V21.8146H69.0359Z" fill="url(#paint4_linear_5137_24679)"/>
<path d="M73.0544 6.05618H75.5881V21.8146H73.0544V6.05618ZM74.3522 3.39888C73.899 3.39888 73.5076 3.24438 73.178 2.93539C72.869 2.6264 72.7146 2.23502 72.7146 1.76123C72.7146 1.28745 72.869 0.896066 73.178 0.587078C73.5076 0.278089 73.899 0.123595 74.3522 0.123595C74.826 0.123595 75.2174 0.278089 75.5263 0.587078C75.8353 0.896066 75.9898 1.28745 75.9898 1.76123C75.9898 2.23502 75.8353 2.6264 75.5263 2.93539C75.2174 3.24438 74.826 3.39888 74.3522 3.39888Z" fill="url(#paint5_linear_5137_24679)"/>
<path d="M85.3935 19.7444C86.444 19.7444 87.3607 19.4972 88.1435 19.0028C88.9262 18.4878 89.5339 17.7978 89.9665 16.9326C90.3991 16.0468 90.6154 15.0478 90.6154 13.9354C90.6154 12.8024 90.3991 11.8034 89.9665 10.9382C89.5339 10.073 88.9262 9.39326 88.1435 8.89888C87.3607 8.3839 86.444 8.12641 85.3935 8.12641C84.3429 8.12641 83.4262 8.3839 82.6435 8.89888C81.8607 9.39326 81.253 10.073 80.8204 10.9382C80.3878 11.8034 80.1716 12.8024 80.1716 13.9354C80.1716 15.0478 80.3878 16.0468 80.8204 16.9326C81.253 17.7978 81.8607 18.4878 82.6435 19.0028C83.4262 19.4972 84.3429 19.7444 85.3935 19.7444ZM85.3935 22C83.8691 22 82.5096 21.6601 81.3148 20.9803C80.1407 20.3006 79.224 19.353 78.5648 18.1376C77.9056 16.9223 77.5761 15.5215 77.5761 13.9354C77.5761 12.3286 77.9056 10.9279 78.5648 9.73314C79.224 8.51779 80.1407 7.57023 81.3148 6.89045C82.5096 6.21068 83.8691 5.87078 85.3935 5.87078C86.9384 5.87078 88.298 6.21068 89.4721 6.89045C90.6463 7.57023 91.5629 8.51779 92.2221 9.73314C92.8813 10.9279 93.2109 12.3286 93.2109 13.9354C93.2109 15.5215 92.8813 16.9223 92.2221 18.1376C91.5629 19.353 90.6463 20.3006 89.4721 20.9803C88.298 21.6601 86.9384 22 85.3935 22Z" fill="url(#paint6_linear_5137_24679)"/>
<path d="M95.1894 6.05618H97.3832L97.9085 9.33146L97.3832 8.68258C97.8158 8.00281 98.4647 7.36423 99.3298 6.76685C100.216 6.16947 101.41 5.87078 102.914 5.87078C104.109 5.87078 105.18 6.10768 106.128 6.58146C107.096 7.05524 107.858 7.81741 108.414 8.86798C108.991 9.89794 109.279 11.2884 109.279 13.0393V21.8146H106.746V13.1938C106.746 11.5459 106.375 10.2996 105.633 9.45506C104.912 8.61049 103.862 8.1882 102.482 8.1882C101.493 8.1882 100.638 8.42509 99.9169 8.89888C99.2165 9.35206 98.6706 10.0112 98.2793 10.8764C97.9085 11.7416 97.7231 12.7612 97.7231 13.9354V21.8146H95.1894V6.05618Z" fill="url(#paint7_linear_5137_24679)"/>
<path d="M111.83 0.185391H115.383V9.26966H125.425V0.185391H128.979V21.8146H125.425V12.4213H115.383V21.8146H111.83V0.185391Z" fill="url(#paint8_linear_5137_24679)"/>
<path d="M141.605 12.7921H143.922C144.458 12.7921 144.911 12.8539 145.282 12.9775C145.652 13.0805 145.972 13.2453 146.239 13.4719C146.507 13.6985 146.754 13.9766 146.981 14.3062L149.515 17.6124C149.782 17.9625 150.05 18.2303 150.318 18.4157C150.606 18.5805 150.967 18.6629 151.4 18.6629H153.284V21.8146H151.183C150.297 21.8146 149.618 21.691 149.144 21.4438C148.67 21.1966 148.238 20.8155 147.846 20.3006L145.251 16.9326C145.003 16.5618 144.746 16.294 144.478 16.1292C144.21 15.9644 143.891 15.882 143.52 15.882H141.605V12.7921ZM141.666 0C143.747 0 145.57 0.473783 147.135 1.42135C148.722 2.36891 149.958 3.67696 150.843 5.3455C151.729 6.99344 152.172 8.87828 152.172 11C152.172 13.1217 151.729 15.0169 150.843 16.6854C149.958 18.3333 148.722 19.6311 147.135 20.5787C145.57 21.5262 143.747 22 141.666 22C139.606 22 137.783 21.5262 136.197 20.5787C134.632 19.6311 133.396 18.3333 132.489 16.6854C131.604 15.0169 131.161 13.1217 131.161 11C131.161 8.87828 131.604 6.99344 132.489 5.3455C133.396 3.67696 134.632 2.36891 136.197 1.42135C137.783 0.473783 139.606 0 141.666 0ZM141.666 3.12079C140.307 3.12079 139.112 3.46067 138.082 4.14045C137.052 4.82022 136.249 5.74719 135.672 6.92135C135.095 8.09551 134.807 9.45506 134.807 11C134.807 12.5243 135.095 13.8839 135.672 15.0787C136.249 16.2528 137.052 17.1798 138.082 17.8596C139.112 18.5393 140.307 18.8792 141.666 18.8792C143.047 18.8792 144.252 18.5393 145.282 17.8596C146.311 17.1798 147.105 16.2528 147.661 15.0787C148.238 13.8839 148.526 12.5243 148.526 11C148.526 9.45506 148.238 8.09551 147.661 6.92135C147.105 5.74719 146.311 4.82022 145.282 4.14045C144.252 3.46067 143.047 3.12079 141.666 3.12079Z" fill="url(#paint9_linear_5137_24679)"/>
<defs>
<linearGradient id="paint0_linear_5137_24679" x1="7.37493" y1="7.0791" x2="7.37493" y2="21.8296" gradientUnits="userSpaceOnUse">
<stop stop-color="#ADD8FB"/>
<stop offset="1" stop-color="#3B82F6"/>
</linearGradient>
<linearGradient id="paint1_linear_5137_24679" x1="12.1391" y1="0.204102" x2="12.1391" y2="19.1706" gradientUnits="userSpaceOnUse">
<stop stop-color="#ADD8FB"/>
<stop offset="1" stop-color="#3B82F6"/>
</linearGradient>
<linearGradient id="paint2_linear_5137_24679" x1="90.4491" y1="0" x2="90.4491" y2="22" gradientUnits="userSpaceOnUse">
<stop stop-color="#ADD8FB"/>
<stop offset="1" stop-color="#3B82F6"/>
</linearGradient>
<linearGradient id="paint3_linear_5137_24679" x1="90.4491" y1="0" x2="90.4491" y2="22" gradientUnits="userSpaceOnUse">
<stop stop-color="#ADD8FB"/>
<stop offset="1" stop-color="#3B82F6"/>
</linearGradient>
<linearGradient id="paint4_linear_5137_24679" x1="90.4491" y1="0" x2="90.4491" y2="22" gradientUnits="userSpaceOnUse">
<stop stop-color="#ADD8FB"/>
<stop offset="1" stop-color="#3B82F6"/>
</linearGradient>
<linearGradient id="paint5_linear_5137_24679" x1="90.4491" y1="0" x2="90.4491" y2="22" gradientUnits="userSpaceOnUse">
<stop stop-color="#ADD8FB"/>
<stop offset="1" stop-color="#3B82F6"/>
</linearGradient>
<linearGradient id="paint6_linear_5137_24679" x1="90.4491" y1="0" x2="90.4491" y2="22" gradientUnits="userSpaceOnUse">
<stop stop-color="#ADD8FB"/>
<stop offset="1" stop-color="#3B82F6"/>
</linearGradient>
<linearGradient id="paint7_linear_5137_24679" x1="90.4491" y1="0" x2="90.4491" y2="22" gradientUnits="userSpaceOnUse">
<stop stop-color="#ADD8FB"/>
<stop offset="1" stop-color="#3B82F6"/>
</linearGradient>
<linearGradient id="paint8_linear_5137_24679" x1="90.4491" y1="0" x2="90.4491" y2="22" gradientUnits="userSpaceOnUse">
<stop stop-color="#ADD8FB"/>
<stop offset="1" stop-color="#3B82F6"/>
</linearGradient>
<linearGradient id="paint9_linear_5137_24679" x1="90.4491" y1="0" x2="90.4491" y2="22" gradientUnits="userSpaceOnUse">
<stop stop-color="#ADD8FB"/>
<stop offset="1" stop-color="#3B82F6"/>
</linearGradient>
</defs>
</svg>
